<?xml version="1.0" encoding="utf-8"?>
<!-- Generator: Adobe Illustrator 19.0.0, SVG Export Plug-In . SVG Version: 6.00 Build 0)  -->
<svg version="1.1" id="Layer_1" xmlns="http://www.w3.org/2000/svg" xmlns:xlink="http://www.w3.org/1999/xlink" x="0px" y="0px"
	 viewBox="-404 282.3 31.9 32" style="enable-background:new -404 282.3 31.9 32;" xml:space="preserve">
<style type="text/css">
	.st0{fill:#537631;stroke:#547636;stroke-miterlimit:10;}
	.st1{fill:#537631;stroke:#547636;stroke-width:0.7087;stroke-miterlimit:10;}
</style>
<path class="st0" d="M-374,301c-0.2-0.3-0.6-0.4-0.8-0.2l-11.8,7.3l5.9-12.6c0.1-0.3,0-0.7-0.3-0.8c-0.3-0.1-0.7,0-0.8,0.3l-5.6,12
	l0-15.5c0-0.3-0.3-0.6-0.6-0.6c-0.3,0-0.6,0.3-0.6,0.6l0,15.5l-5.7-12c-0.1-0.3-0.5-0.4-0.8-0.3c-0.3,0.1-0.4,0.5-0.3,0.8l5.9,12.6
	l-11.8-7.3c-0.3-0.2-0.7-0.1-0.8,0.2c-0.2,0.3-0.1,0.7,0.2,0.8l13.3,8.2l0,2.5c0,0.3,0.3,0.6,0.6,0.6c0.3,0,0.6-0.3,0.6-0.6l0-2.5
	l13.3-8.2C-373.9,301.6-373.8,301.3-374,301z"/>
<path class="st1" d="M-390.4,291.2c-0.9,0-1.6-0.2-2.2-0.7c-0.5-0.4-0.8-1-0.8-1.7c0-1.2,0.9-2.4,2.7-2.4c0.3,0,0.5,0.2,0.5,0.5
	c0,0.3-0.2,0.5-0.5,0.5c-1.2,0-1.7,0.7-1.7,1.4c0,0.4,0.2,0.7,0.4,0.9c0.3,0.3,0.9,0.5,1.5,0.5c2.1,0,4.5,0,5.8,0
	c-0.4-0.3-1-0.8-1.8-1.2c-2.1-1.2-3-2.5-3.7-3.4c-0.6-0.9-0.9-1.2-1.7-1.2c-0.3,0-0.5-0.2-0.5-0.5c0-0.3,0.2-0.5,0.5-0.5
	c1.3,0,1.9,0.8,2.5,1.6c0.6,0.9,1.4,2,3.3,3.1c2.1,1.2,2.9,2.2,3,2.2l0.7,0.8l-1,0C-383.3,291.2-387.1,291.2-390.4,291.2z"/>
</svg>
